<svg width="241" height="84" viewBox="0 0 241 84" fill="none" xmlns="http://www.w3.org/2000/svg">
<path d="M29.9919 83.3238C24.3903 83.3238 19.2944 82.1568 14.7042 79.8228C10.1918 77.4888 6.61298 74.1045 3.96778 69.6699C1.32258 65.2353 -2.47929e-05 59.8671 -2.47929e-05 53.5653V51.9315C-2.47929e-05 45.6297 1.32258 40.2615 3.96778 35.8269C6.61298 31.3923 10.1918 28.008 14.7042 25.674C19.2944 23.34 24.3903 22.173 29.9919 22.173C35.5157 22.173 40.2615 23.1455 44.2293 25.0905C48.1971 27.0355 51.3869 29.7196 53.7987 33.1428C56.2883 36.4882 57.9221 40.3004 58.7001 44.5794L44.4627 47.6136C44.1515 45.2796 43.4513 43.179 42.3621 41.3118C41.2729 39.4446 39.7169 37.9664 37.6941 36.8772C35.7491 35.788 33.2984 35.2434 30.342 35.2434C27.3856 35.2434 24.7015 35.9047 22.2897 37.2273C19.9557 38.4721 18.0885 40.3782 16.6881 42.9456C15.3655 45.4352 14.7042 48.5083 14.7042 52.1649V53.3319C14.7042 56.9885 15.3655 60.1005 16.6881 62.6679C18.0885 65.1575 19.9557 67.0636 22.2897 68.3862C24.7015 69.631 27.3856 70.2534 30.342 70.2534C34.7766 70.2534 38.122 69.1253 40.3782 66.8691C42.7122 64.5351 44.1904 61.5009 44.8128 57.7665L59.0502 61.1508C58.0388 65.2742 56.2883 69.0475 53.7987 72.4707C51.3869 75.8161 48.1971 78.4613 44.2293 80.4063C40.2615 82.3513 35.5157 83.3238 29.9919 83.3238ZM63.9797 81.69V-9.87053e-07H78.6839V81.69H63.9797ZM115.319 83.3238C109.562 83.3238 104.388 82.1568 99.7982 79.8228C95.208 77.4888 91.5903 74.1045 88.9451 69.6699C86.2999 65.2353 84.9773 59.906 84.9773 53.682V51.8148C84.9773 45.5908 86.2999 40.2615 88.9451 35.8269C91.5903 31.3923 95.208 28.008 99.7982 25.674C104.388 23.34 109.562 22.173 115.319 22.173C121.077 22.173 126.25 23.34 130.84 25.674C135.431 28.008 139.048 31.3923 141.694 35.8269C144.339 40.2615 145.661 45.5908 145.661 51.8148V53.682C145.661 59.906 144.339 65.2353 141.694 69.6699C139.048 74.1045 135.431 77.4888 130.84 79.8228C126.25 82.1568 121.077 83.3238 115.319 83.3238ZM115.319 70.2534C119.832 70.2534 123.566 68.8141 126.523 65.9355C129.479 62.9791 130.957 58.7779 130.957 53.3319V52.1649C130.957 46.7189 129.479 42.5566 126.523 39.678C123.644 36.7216 119.91 35.2434 115.319 35.2434C110.807 35.2434 107.073 36.7216 104.116 39.678C101.16 42.5566 99.6815 46.7189 99.6815 52.1649V53.3319C99.6815 58.7779 101.16 62.9791 104.116 65.9355C107.073 68.8141 110.807 70.2534 115.319 70.2534ZM176.074 83.3238C168.528 83.3238 162.343 81.69 157.519 78.4224C152.695 75.1548 149.778 70.4868 148.766 64.4184L162.304 60.9174C162.848 63.6404 163.743 65.7799 164.988 67.3359C166.31 68.8919 167.905 70.02 169.772 70.7202C171.717 71.3426 173.818 71.6538 176.074 71.6538C179.497 71.6538 182.026 71.0703 183.66 69.9033C185.294 68.6585 186.11 67.1414 186.11 65.352C186.11 63.5626 185.332 62.2011 183.776 61.2675C182.22 60.2561 179.731 59.4392 176.308 58.8168L173.04 58.2333C168.994 57.4553 165.299 56.405 161.954 55.0824C158.608 53.682 155.924 51.7759 153.901 49.3641C151.878 46.9523 150.867 43.8403 150.867 40.0281C150.867 34.2709 152.968 29.8752 157.169 26.841C161.37 23.729 166.894 22.173 173.74 22.173C180.198 22.173 185.566 23.6123 189.845 26.4909C194.124 29.3695 196.925 33.1428 198.247 37.8108L184.593 42.012C183.971 39.0556 182.687 36.955 180.742 35.7102C178.875 34.4654 176.541 33.843 173.74 33.843C170.939 33.843 168.8 34.3487 167.322 35.3601C165.844 36.2937 165.104 37.6163 165.104 39.3279C165.104 41.1951 165.882 42.5955 167.438 43.5291C168.994 44.3849 171.095 45.0462 173.74 45.513L177.008 46.0965C181.365 46.8745 185.294 47.9248 188.795 49.2474C192.373 50.4922 195.174 52.3205 197.197 54.7323C199.298 57.0663 200.348 60.2561 200.348 64.3017C200.348 70.3701 198.131 75.077 193.696 78.4224C189.339 81.69 183.465 83.3238 176.074 83.3238ZM206.033 81.69V23.8068H220.504V30.342H222.605C223.46 28.008 224.861 26.2964 226.806 25.2072C228.829 24.118 231.163 23.5734 233.808 23.5734H240.81V36.6438H233.574C229.84 36.6438 226.767 37.6552 224.355 39.678C221.943 41.623 220.737 44.6572 220.737 48.7806V81.69H206.033Z" fill="#F8FAFC"/>
</svg>
